<svg width="9" height="12" viewBox="0 0 9 12" fill="none" xmlns="http://www.w3.org/2000/svg">
<path d="M7.85974 5.96948C7.85974 6.1604 7.78802 6.32324 7.63907 6.46924L3.33603 10.7537C3.22018 10.8772 3.06571 10.939 2.88918 10.939C2.53059 10.939 2.24924 10.6582 2.24924 10.2876C2.24924 10.1079 2.32095 9.94507 2.44232 9.82153L6.32058 5.96948L2.44232 2.11743C2.32095 1.98828 2.24924 1.82544 2.24924 1.64575C2.24924 1.28076 2.53059 1 2.88918 1C3.06571 1 3.22018 1.06177 3.33603 1.1853L7.63907 5.46973C7.78802 5.61572 7.85422 5.77856 7.85974 5.96948Z" fill="black"/>
</svg>
