<svg width="32" height="32" viewBox="0 0 32 32" fill="none" xmlns="http://www.w3.org/2000/svg">
<g filter="url(#filter0_d_178_325)">
<path d="M21.4213 11.9937C21.5169 11.9015 21.5931 11.7912 21.6456 11.6692C21.698 11.5472 21.7257 11.416 21.7269 11.2832C21.7281 11.1505 21.7029 11.0188 21.6527 10.8958C21.6024 10.7729 21.5282 10.6612 21.4344 10.5673C21.3405 10.4734 21.2289 10.3991 21.1061 10.3487C20.9832 10.2984 20.8515 10.273 20.7187 10.2741C20.586 10.2752 20.4547 10.3027 20.3327 10.3551C20.2107 10.4074 20.1003 10.4836 20.008 10.579L16 14.5857L11.9933 10.579C11.9018 10.4808 11.7914 10.402 11.6687 10.3473C11.546 10.2927 11.4136 10.2633 11.2794 10.2609C11.1451 10.2585 11.0117 10.2832 10.8872 10.3335C10.7627 10.3838 10.6496 10.4587 10.5546 10.5536C10.4597 10.6486 10.3848 10.7617 10.3345 10.8862C10.2842 11.0107 10.2595 11.1441 10.2619 11.2784C10.2642 11.4127 10.2936 11.5451 10.3483 11.6677C10.4029 11.7904 10.4817 11.9008 10.58 11.9924L14.584 16.0004L10.5773 20.007C10.4007 20.1966 10.3045 20.4473 10.3091 20.7064C10.3137 20.9655 10.4186 21.2126 10.6018 21.3958C10.7851 21.5791 11.0322 21.684 11.2913 21.6886C11.5504 21.6932 11.8011 21.597 11.9907 21.4204L16 17.4137L20.0067 21.4217C20.1962 21.5983 20.447 21.6945 20.706 21.6899C20.9651 21.6853 21.2123 21.5804 21.3955 21.3972C21.5787 21.214 21.6837 20.9668 21.6882 20.7077C21.6928 20.4486 21.5966 20.1979 21.42 20.0084L17.416 16.0004L21.4213 11.9937Z" fill="black" fill-opacity="0.3"/>
</g>
<defs>
<filter id="filter0_d_178_325" x="-4" y="0" width="40" height="40" filterUnits="userSpaceOnUse" color-interpolation-filters="sRGB">
<feFlood flood-opacity="0" result="BackgroundImageFix"/>
<feColorMatrix in="SourceAlpha" type="matrix" values="0 0 0 0 0 0 0 0 0 0 0 0 0 0 0 0 0 0 127 0" result="hardAlpha"/>
<feOffset dy="4"/>
<feGaussianBlur stdDeviation="2"/>
<feComposite in2="hardAlpha" operator="out"/>
<feColorMatrix type="matrix" values="0 0 0 0 1 0 0 0 0 1 0 0 0 0 1 0 0 0 0.1 0"/>
<feBlend mode="normal" in2="BackgroundImageFix" result="effect1_dropShadow_178_325"/>
<feBlend mode="normal" in="SourceGraphic" in2="effect1_dropShadow_178_325" result="shape"/>
</filter>
</defs>
</svg>
