<svg width="124" height="35" viewBox="0 0 124 35" fill="none" xmlns="http://www.w3.org/2000/svg">
<path d="M4.5477 34.2927V33.8987C4.5477 27.0987 4.54981 20.3017 4.55403 13.5077C4.55403 13.2647 4.47813 13.1987 4.23777 13.1997C2.85681 13.2077 1.47373 13.1997 0 13.1997C0.495461 12.8187 0.926618 12.4817 1.36515 12.1487C2.37611 11.3797 3.39233 10.6167 4.3959 9.83766C4.48443 9.7477 4.53279 9.62871 4.53083 9.50566C4.53083 6.90566 4.52697 4.30566 4.51924 1.70566C4.51924 1.43666 4.57616 1.32466 4.89558 1.32566C7.00392 1.33966 9.11227 1.33966 11.2206 1.32566C11.4894 1.32566 11.579 1.38466 11.5738 1.65566C11.5548 2.51066 11.5664 3.36766 11.5664 4.28866C11.6579 4.25392 11.7458 4.21106 11.8289 4.16066C13.5858 2.82132 15.3428 1.48032 17.0997 0.137656C17.2948 -0.0123444 17.435 -0.0693444 17.6732 0.119656C18.622 0.877656 19.6066 1.60566 20.5764 2.34366C21.7578 3.24232 22.9395 4.14232 24.1216 5.04366C25.5173 6.11032 26.9116 7.17699 28.3045 8.24366C29.5885 9.22566 30.8732 10.2063 32.1586 11.1857C33.0167 11.8377 33.879 12.4857 34.8225 13.1977H12.045C11.5179 13.1977 11.5717 13.1497 11.5717 13.6397C11.5717 20.387 11.5717 27.1343 11.5717 33.8817V34.2817L4.5477 34.2927Z" fill="#0B5AA5"/>
<path d="M13.1086 26.8384V25.3064C13.1086 24.2004 13.1086 23.0944 13.1086 21.9874C13.1086 21.7954 13.0897 21.7034 13.3964 21.7034C16.4799 21.7134 19.5633 21.6864 22.6468 21.6694H22.709C23.2719 21.6924 23.2719 21.6924 23.2719 21.1344V14.5674H30.2558V34.2954H23.2698V33.9414C23.2698 31.6894 23.2635 29.4364 23.2761 27.1844C23.2761 26.9054 23.1928 26.8314 22.9072 26.8334C19.7685 26.8421 16.6306 26.8441 13.4934 26.8394L13.1086 26.8384Z" fill="#0B5AA5"/>
<path d="M116.511 25.2339C116.553 26.4586 116.303 27.6765 115.78 28.7969C115.154 30.1356 114.056 31.2257 112.675 31.8799C111.82 32.2744 110.902 32.5309 109.958 32.6389C109.034 32.7673 108.098 32.7844 107.17 32.6899C105.309 32.5825 103.556 31.8252 102.248 30.5639C101.332 29.646 100.715 28.4966 100.47 27.2539C100.076 25.5368 100.181 23.7503 100.776 22.0859C101.138 21.0777 101.761 20.1716 102.587 19.4505C103.414 18.7294 104.418 18.2162 105.507 17.9579C106.626 17.6655 107.788 17.547 108.947 17.6069C110.472 17.623 111.964 18.027 113.269 18.7769C114.477 19.5083 115.402 20.5924 115.904 21.8659C116.337 22.9401 116.543 24.0844 116.511 25.2339ZM111.685 25.2339C111.596 24.5549 111.533 23.8739 111.412 23.2009C111.311 22.5574 111.005 21.9585 110.535 21.4839C110.234 21.2102 109.874 21.0019 109.48 20.8732C109.086 20.7446 108.667 20.6988 108.252 20.7389C107.652 20.7076 107.059 20.8715 106.571 21.2036C106.083 21.5357 105.729 22.016 105.568 22.5649C105.045 24.0883 104.982 25.7202 105.386 27.2759C105.462 27.8781 105.754 28.4371 106.214 28.859C106.673 29.2809 107.271 29.5401 107.908 29.5929C108.648 29.7433 109.419 29.613 110.059 29.23C110.698 28.847 111.154 28.2417 111.328 27.5439C111.546 26.7906 111.666 26.0148 111.685 25.2339Z" fill="#0B5AA5"/>
<path d="M49.1139 25.1836C49.1828 26.6179 48.8395 28.043 48.1209 29.3066C47.4997 30.3734 46.5645 31.2455 45.4296 31.8166C44.6278 32.2257 43.7558 32.4965 42.8542 32.6166C41.9439 32.7572 41.0187 32.7908 40.0997 32.7166C39.0589 32.6463 38.0369 32.417 37.0732 32.0376C35.6148 31.4476 34.431 30.3766 33.7409 29.0226C33.2707 28.0941 32.993 27.0885 32.9229 26.0606C32.7404 24.526 32.982 22.9728 33.6239 21.5536C34.1943 20.3253 35.1684 19.3052 36.4006 18.6456C37.496 18.0696 38.7119 17.7298 39.9616 17.6506C41.5093 17.4931 43.0745 17.6639 44.5441 18.1506C45.8755 18.6001 47.0183 19.4453 47.8025 20.5606C48.7464 21.9303 49.2057 23.5495 49.1139 25.1836ZM37.7605 25.1946C37.7144 26.0765 37.845 26.9588 38.1452 27.7946C38.3594 28.4397 38.8302 28.9803 39.4577 29.3016C40.124 29.6074 40.8744 29.7081 41.604 29.5896C42.1028 29.5517 42.5771 29.3683 42.9618 29.0646C43.6532 28.4765 44.0775 27.6571 44.1456 26.7786C44.2204 25.9786 44.2152 25.1786 44.2162 24.3786C44.2173 23.7026 44.0738 23.0335 43.7946 22.4116C43.6694 22.0762 43.4715 21.7695 43.2137 21.5111C42.9558 21.2528 42.6438 21.0485 42.2976 20.9116C41.7442 20.7426 41.1601 20.6831 40.5814 20.7366C40.1213 20.741 39.6718 20.8687 39.2849 21.1051C38.898 21.3415 38.5896 21.6769 38.3951 22.0726C37.8997 23.0428 37.6802 24.1193 37.7605 25.1946Z" fill="#0B5AA5"/>
<path d="M98.9257 25.9342H87.9792C88.0098 26.2445 88.0583 26.5529 88.1246 26.8582C88.2965 27.5187 88.6776 28.1135 89.2166 28.5623C89.7557 29.011 90.4268 29.2923 91.1396 29.3682C91.808 29.4944 92.4885 29.5533 93.1699 29.5442C94.6417 29.4966 96.0776 29.1013 97.3476 28.3942C97.609 28.2542 97.8504 28.0782 98.1171 27.9482C98.2712 27.8999 98.4315 27.8723 98.5936 27.8662C98.6052 27.9862 98.62 28.0662 98.62 28.1542C98.62 29.1802 98.6137 30.2072 98.62 31.2332C98.631 31.3087 98.612 31.3854 98.5666 31.4483C98.5211 31.5112 98.4526 31.5557 98.3744 31.5732C97.1572 32.0424 95.8819 32.3624 94.5793 32.5252C93.3036 32.6806 92.0131 32.6957 90.7337 32.5702C89.1415 32.4658 87.6033 31.98 86.263 31.1582C84.9035 30.2961 83.9391 28.9771 83.5643 27.4672C83.2521 26.2298 83.2023 24.946 83.4177 23.6902C83.5982 22.428 84.1371 21.2361 84.9769 20.2422C85.9344 19.1276 87.2416 18.3317 88.7086 17.9702C90.0183 17.6309 91.3823 17.5215 92.7335 17.6472C93.87 17.7173 94.9767 18.0221 95.9761 18.5402C97.0437 19.1166 97.8692 20.0247 98.3132 21.1112C98.7304 22.096 98.9361 23.15 98.9183 24.2112C98.9257 24.7722 98.9257 25.3342 98.9257 25.9342ZM88.0034 23.3252C88.1014 23.3332 88.1721 23.3432 88.2448 23.3432C90.1339 23.3432 92.024 23.3432 93.9131 23.3492C94.1556 23.3492 94.2641 23.2872 94.2293 23.0492C94.203 22.8732 94.1967 22.6932 94.1629 22.5192C94.1307 22.1228 93.9864 21.7419 93.7452 21.4167C93.5041 21.0915 93.1749 20.8339 92.7925 20.6712C92.2377 20.4442 91.6344 20.3446 91.0314 20.3804C90.4284 20.4162 89.8428 20.5864 89.3222 20.8772C88.8847 21.1291 88.5297 21.4915 88.2968 21.9238C88.0639 22.3561 87.9623 22.8413 88.0034 23.3252Z" fill="#0B5AA5"/>
<path d="M50.9018 18.0996H55.5317V18.4666C55.5317 20.6296 55.5212 22.7926 55.538 24.9546C55.536 25.6999 55.5782 26.4448 55.6645 27.1856C55.6537 27.4411 55.6997 27.6958 55.7996 27.9333C55.8994 28.1708 56.0509 28.3856 56.2442 28.5638C56.4374 28.742 56.6681 28.8796 56.9211 28.9676C57.1742 29.0556 57.4439 29.0921 57.7128 29.0746C58.8146 29.1549 59.9142 28.8934 60.8458 28.3296C60.9221 28.2909 60.9835 28.2303 61.0213 28.1565C61.0592 28.0827 61.0715 27.9994 61.0566 27.9186C61.0566 24.7793 61.0566 21.6399 61.0566 18.5006V18.1006H65.7604V18.4236C65.7604 22.9189 65.7628 27.4139 65.7677 31.9086C65.7677 32.2186 65.6708 32.2906 65.3619 32.2866C64.0421 32.2706 62.7264 32.2796 61.4024 32.2796H61.0482V30.7266C60.8648 30.8266 60.7467 30.8946 60.6329 30.9626C60.0098 31.3366 59.3953 31.7216 58.7659 32.0826C58.0791 32.4492 57.311 32.6571 56.5237 32.6896C55.5412 32.7821 54.5499 32.6448 53.6363 32.2896C53.0929 32.0756 52.6035 31.7547 52.2004 31.3481C51.7974 30.9414 51.4898 30.4583 51.2982 29.9306C51.0184 29.2135 50.8781 28.4542 50.8839 27.6896C50.8839 24.5703 50.8839 21.4506 50.8839 18.3306C50.8848 18.2533 50.8908 18.1762 50.9018 18.0996Z" fill="#0B5AA5"/>
<path d="M75.7919 21.3325H68.4928V18.1025H81.8808C81.8871 18.1815 81.8997 18.2675 81.8997 18.3525C81.8997 19.0905 81.9113 19.8265 81.8923 20.5645C81.8841 20.7373 81.8164 20.9028 81.6994 21.0355C79.7984 23.0209 77.8907 25.0005 75.9763 26.9745C75.464 27.5045 74.9464 28.0315 74.4415 28.5685C74.3613 28.6842 74.2965 28.8088 74.2485 28.9395H82.002V32.2795H81.671C77.2765 32.2795 72.882 32.2819 68.4875 32.2865C68.166 32.2865 68.0816 32.1995 68.0911 31.8995C68.1133 31.1635 68.0911 30.4255 68.1069 29.6875C68.1147 29.5148 68.183 29.3494 68.3009 29.2175C70.0846 27.3709 71.8767 25.5305 73.6772 23.6965C74.3339 23.0235 74.9938 22.3515 75.6474 21.6755C75.7202 21.5911 75.7871 21.5022 75.8477 21.4095L75.7919 21.3325Z" fill="#0B5AA5"/>
<path d="M118.168 25.1784C118.168 23.5844 118.182 21.9914 118.168 20.3964C118.17 19.84 118.344 19.2963 118.668 18.8325C118.992 18.3687 119.452 18.0051 119.991 17.7864C120.45 17.596 120.956 17.5325 121.451 17.6033C121.946 17.6741 122.41 17.8762 122.789 18.1864C123.165 18.4629 123.466 18.8215 123.665 19.2317C123.863 19.6418 123.955 20.0915 123.932 20.5424C123.939 23.6604 123.939 26.7781 123.932 29.8954C123.959 30.4928 123.785 31.0828 123.435 31.5803C123.086 32.0778 122.578 32.4571 121.987 32.6634C121.536 32.829 121.046 32.8747 120.569 32.7956C120.093 32.7165 119.649 32.5155 119.284 32.2144C118.932 31.9559 118.648 31.6228 118.456 31.2419C118.264 30.861 118.168 30.4427 118.176 30.0204C118.159 28.4074 118.168 26.7934 118.168 25.1784ZM122.456 28.9354C122.582 28.8336 122.685 28.7081 122.757 28.5669C122.83 28.4257 122.871 28.2717 122.878 28.1147C122.885 27.9577 122.858 27.801 122.798 27.6545C122.738 27.508 122.646 27.3749 122.53 27.2634C122.859 27.1854 122.925 26.9344 122.765 26.4184C121.973 26.4184 121.175 26.4124 120.377 26.4184C119.649 26.4254 119.717 26.2884 119.7 27.0774C119.7 27.2914 119.778 27.3564 119.99 27.3514C120.427 27.3414 120.863 27.3384 121.297 27.3514C121.472 27.3548 121.644 27.3887 121.805 27.4514C121.868 27.4704 121.924 27.5066 121.965 27.5555C122.006 27.6045 122.03 27.6639 122.036 27.7261C122.041 27.7884 122.027 27.8508 121.994 27.9053C121.962 27.9599 121.914 28.0041 121.855 28.0324C121.743 28.0993 121.615 28.1392 121.483 28.1484C121.12 28.1664 120.758 28.1584 120.394 28.1644C119.602 28.1774 119.727 28.0514 119.702 28.8334C119.695 29.0644 119.785 29.1194 120.011 29.1124C120.519 29.0984 121.027 29.1014 121.537 29.1124C121.599 29.1075 121.661 29.115 121.72 29.1342C121.778 29.1534 121.832 29.1841 121.878 29.2241C121.924 29.2642 121.96 29.3128 121.985 29.3669C122.009 29.421 122.022 29.4794 122.022 29.5384C121.984 29.8054 121.776 29.8814 121.525 29.8814C121.141 29.8814 120.757 29.8814 120.373 29.8814C119.668 29.8914 119.71 29.7444 119.706 30.5504C119.706 30.7354 119.76 30.8184 119.97 30.8154C120.593 30.8044 121.216 30.8254 121.837 30.8014C122.052 30.7975 122.262 30.7384 122.444 30.6304C122.582 30.5315 122.694 30.4039 122.771 30.2575C122.848 30.1112 122.889 29.9499 122.89 29.7861C122.891 29.6224 122.853 29.4606 122.777 29.3133C122.702 29.1659 122.592 29.036 122.456 28.9354ZM121.24 25.9144C121.454 25.9404 121.67 25.9213 121.875 25.8584C122.079 25.7955 122.267 25.6903 122.423 25.5505C122.58 25.4107 122.702 25.2397 122.78 25.0498C122.859 24.8599 122.892 24.6559 122.878 24.4524C122.897 24.2448 122.87 24.0355 122.796 23.8391C122.722 23.6427 122.605 23.4638 122.451 23.3147C122.297 23.1656 122.111 23.05 121.906 22.9757C121.701 22.9014 121.481 22.8702 121.262 22.8844C120.845 22.8916 120.448 23.053 120.155 23.3341C119.862 23.6153 119.696 23.9939 119.694 24.3892C119.691 24.7844 119.851 25.1651 120.14 25.4499C120.429 25.7346 120.824 25.902 121.24 25.9144ZM120.519 22.5304C120.489 21.6354 120.717 21.2604 121.284 21.2504C121.811 21.2424 122.041 21.6284 122.022 22.5004C122.678 22.8224 122.847 22.7364 122.865 22.0414C122.903 21.7594 122.862 21.4729 122.745 21.2111C122.628 20.9493 122.44 20.7216 122.2 20.5514C121.928 20.3649 121.603 20.2614 121.268 20.2546C120.933 20.2478 120.603 20.3381 120.323 20.5134C120.072 20.6691 119.874 20.892 119.756 21.154C119.638 21.416 119.605 21.7053 119.66 21.9854C119.698 22.7434 119.768 22.7834 120.519 22.5304ZM120.251 19.9304C120.651 19.9304 120.883 19.7524 120.883 19.4404C120.888 19.3618 120.875 19.2831 120.845 19.2096C120.815 19.1361 120.769 19.0694 120.71 19.014C120.651 18.9586 120.58 18.9157 120.503 18.8882C120.425 18.8607 120.342 18.8492 120.259 18.8544C120.178 18.8478 120.097 18.8578 120.021 18.8836C119.945 18.9093 119.875 18.9504 119.817 19.0039C119.759 19.0574 119.714 19.1221 119.685 19.1936C119.656 19.2651 119.643 19.3418 119.648 19.4184C119.649 19.7494 119.868 19.9354 120.251 19.9354V19.9304Z" fill="#0B5AA5"/>
<path d="M121.252 24.9719C120.751 24.9409 120.409 24.7209 120.409 24.4129C120.409 24.1049 120.783 23.8599 121.278 23.8749C121.453 23.8644 121.628 23.8989 121.783 23.9749C121.929 24.0749 122.1 24.2679 122.09 24.4109C122.042 24.5954 121.92 24.7551 121.751 24.8569C121.594 24.9251 121.424 24.9641 121.252 24.9719Z" fill="#0B5AA5"/>
</svg>
